<svg xmlns="http://www.w3.org/2000/svg" width="22.83" height="20" viewBox="0 0 22.83 20"><path d="M1.08,1H7.33a4.25,4.25,0,0,1,2.95,1.17A3.93,3.93,0,0,1,11.5,5V19a2.92,2.92,0,0,0-.92-2.12A3.19,3.19,0,0,0,8.37,16H1.08Z" transform="translate(-0.08)" fill="none" stroke="#000" stroke-linecap="round" stroke-linejoin="round" stroke-width="2"/><path d="M21.92,1H15.67a4.25,4.25,0,0,0-2.95,1.17A3.93,3.93,0,0,0,11.5,5V19a2.92,2.92,0,0,1,.92-2.12,3.19,3.19,0,0,1,2.2-.88h7.3Z" transform="translate(-0.08)" fill="none" stroke="#000" stroke-linecap="round" stroke-linejoin="round" stroke-width="2"/></svg>